{"title":"Terminator Genisys 2015 CAM XviD AC3-MenaceIISociety","uid":12087818,"size":1379467473,"categoryP":"video","categoryS":"movies","magnet":"?xt=urn:btih:2da8abfaa827230ca276adb2440c5da54e87429d&amp;dn=Terminator+Genisys+2015+CAM+XviD+AC3-MenaceIISociety&amp;tr=udp%3A%2F%2Ftracker.openbittorrent.com%3A80&amp;tr=udp%3A%2F%2Fopen.demonii.com%3A1337&amp;tr=udp%3A%2F%2Ftracker.coppersurfer.tk%3A6969&amp;tr=udp%3A%2F%2Fexodus.desync.com%3A6969","seeders":1,"leechers":1,"uploader":"makintos13","files":4,"time":1435948107,"description":" &lt;a href=&quot;http://imgmak.com/Ox&quot; rel=&quot;nofollow&quot; target=&quot;_NEW&quot;&gt;http://imgmak.com/Ox&lt;/a&gt;\n &lt;a href=&quot;\nhttp://www.imdb.com/title/tt1340138/&quot; rel=&quot;nofollow&quot; target=&quot;_NEW&quot;&gt;\nhttp://www.imdb.com/title/tt1340138/&lt;/a&gt;\n\nAudio - MRG [THANKS]\n\nNote: Same vid as the x264 just in XviD format, give the source a -2 rotate, resized, applied some gain and coef settings to make the dark areas a bit more visible  hardly any movement in ths video, its a tad blurry but its straight  Audio is very nice\n\nGeneral\nComplete name: Terminator.Genisys.2015.CAM.XviD.AC3-MenaceIISociety.avi\nFormat: AVI\nFormat/Info: Audio Video Interleave\nFile size: 1.48 GiB\nDuration: 1h 56mn\nOverall bit rate: 1 812 Kbps\n\nVideo\nID: 0\nFormat: MPEG-4 Visual\nFormat profile: Advanced Simple@L5\nFormat settings, BVOP: 2\nFormat settings, QPel: No\nFormat settings, GMC: No warppoints\nFormat settings, Matrix: Default (H.263)\nMuxing mode: Packed bitstream\nCodec ID: XVID\nCodec ID/Hint: XviD\nDuration: 1h 56mn\nBit rate: 1 420 Kbps\nWidth: 720 pixels\nHeight: 304 pixels\nDisplay aspect ratio: 2.35:1\nFrame rate: 29.970 fps\nColor space: YUV\nChroma subsampling: 4:2:0\nBit depth: 8 bits\nScan type: Progressive\nCompression mode: Lossy\nBits/(Pixel*Frame): 0.216\nStream size: 1.16 GiB (78%)\nWriting library: XviD 64\n\nAudio\nID: 1\nFormat: AC-3\nFormat/Info: Audio Coding 3\nMode extension: CM (complete main)\nFormat settings, Endianness: Big\nCodec ID: 2000\nDuration: 1h 56mn\nBit rate mode: Constant\nBit rate: 384 Kbps\nChannel(s): 2 channels\nChannel positions: Front: L R\nSampling rate: 48.0 KHz\nCompression mode: Lossy\nStream size: 321 MiB (21%)\nAlignment: Aligned on interleaves\nInterleave, duration: 64 ms (1.92 video frames)","torrent":{"xt":"urn:btih:2da8abfaa827230ca276adb2440c5da54e87429d","amp;dn":"Terminator+Genisys+2015+CAM+XviD+AC3-MenaceIISociety","amp;tr":["udp%3A%2F%2Ftracker.openbittorrent.com%3A80","udp%3A%2F%2Fopen.demonii.com%3A1337","udp%3A%2F%2Ftracker.coppersurfer.tk%3A6969","udp%3A%2F%2Fexodus.desync.com%3A6969"],"infoHash":"2da8abfaa827230ca276adb2440c5da54e87429d","infoHashBuffer":{"type":"Buffer","data":[45,168,171,250,168,39,35,12,162,118,173,178,68,12,93,165,78,135,66,157]},"announce":[],"urlList":[]}}